<svg width="117" height="28" viewBox="0 0 117 28" fill="none" xmlns="http://www.w3.org/2000/svg">
<g clip-path="url(#clip0_1301_56)">
<path d="M3.30564 14.0385C4.13305 13.7714 5.47133 13.3845 6.82714 13.1836C8.366 12.9556 9.86153 13.1395 10.6753 13.6805C11.8714 14.4756 11.6777 15.9858 11.6777 15.9858H8.21754C5.41878 15.9858 3.34993 16.4865 2.01045 17.487C0.670148 18.4876 0 19.9309 0 21.6765C0 22.7701 0.284732 24.1457 0.8542 25.0062C1.42306 25.8676 2.24665 26.542 3.32637 27.0306C4.4053 27.5194 5.67995 27.7638 7.15055 27.7638C10.6495 27.7638 11.7703 25.8945 11.7703 25.8945V27.4844H16.7318V16.769C16.7318 13.9767 16.0926 11.8536 14.5808 10.5036C13.0095 9.10076 10.9614 8.30059 7.75118 8.42743C4.96369 8.53747 2.48466 9.31972 1.34412 9.73559L3.30564 14.0385ZM11.6777 21.3345C11.6777 21.3345 11.4148 23.5954 8.53793 23.5954C7.56476 23.5954 6.80035 23.4146 6.24297 23.0537C5.68559 22.6925 5.4073 22.2017 5.4073 21.5823C5.4073 20.2812 6.54542 19.6308 8.82187 19.6308H11.6777V21.3345Z" fill="#5733D1"/>
<path d="M34.348 18.7096C33.6684 17.8548 32.8287 17.2364 31.8528 16.8713C30.9179 16.5214 29.9699 16.2277 29.0337 15.997C28.1284 15.7753 27.3521 15.516 26.7259 15.226C25.929 14.8573 25.929 14.4581 25.929 14.3267C25.929 13.9696 26.0783 13.7051 26.3983 13.4952C26.749 13.2663 27.2047 13.1498 27.751 13.1498C29.0023 13.1498 29.8716 13.694 30.4084 14.8125L30.5452 15.0986L35.1301 12.6447L34.9773 12.3813C34.243 11.1162 33.23 10.1285 31.9648 9.44481C30.7029 8.76455 29.2854 8.4198 27.751 8.4198C25.7116 8.4198 23.9784 8.95523 22.599 10.0105C21.1959 11.0841 20.4849 12.5719 20.4849 14.4341C20.4849 15.6742 20.8345 16.7235 21.5241 17.5526C22.2007 18.3678 23.038 18.9724 24.0116 19.3497C24.949 19.7131 25.8974 20.0187 26.8307 20.2596C27.7361 20.4933 28.514 20.7588 29.142 21.0495C29.9391 21.4188 29.9391 21.8183 29.9391 21.9489C29.9391 22.2578 29.9391 23.1978 27.7141 23.1978C25.9858 23.1978 24.9051 22.4995 24.4103 21.0629L24.293 20.7229L19.624 23.2996L19.7442 23.5501C21.1603 26.5029 23.8414 28 27.7141 28C29.8698 28 31.6988 27.479 33.1499 26.4512C34.6317 25.4028 35.383 23.8878 35.383 21.9489C35.383 20.6653 35.0346 19.5758 34.348 18.7096Z" fill="#5733D1"/>
<path d="M50.7817 13.9769V8.92297H38.1191V13.9769H41.3068V21.1581C41.3068 23.716 42.0208 25.5264 43.4279 26.5398C44.4553 27.2794 45.9664 27.6449 48.0117 27.6449C48.7706 27.6449 49.6033 27.5949 50.5121 27.4943L50.7817 27.4647V22.6771L50.4617 22.6945C49.5759 22.7415 48.8222 22.7492 48.2249 22.7127C47.6881 22.6807 47.283 22.5439 47.0198 22.3056C46.7681 22.0777 46.6406 21.6918 46.6406 21.1581V13.9769H50.7817Z" fill="#5733D1"/>
<path d="M65.6183 8.56323C64.3243 8.56323 63.1326 8.86675 62.0769 9.46623C61.3729 9.86551 60.7957 10.4004 60.3513 11.0636V8.92303H55.0176V27.4962H60.3513V18.6053C60.3513 16.9705 60.8647 15.8404 61.9204 15.149C62.9898 14.4496 64.2224 14.1787 65.5827 14.334L65.9218 14.3735V8.56323H65.6183Z" fill="#5733D1"/>
<path d="M44.1374 7.04818C43.1733 7.04818 42.3376 6.70126 41.6304 6.00598C40.922 5.31227 40.5684 4.49232 40.5684 3.54631C40.5684 2.60089 40.922 1.77303 41.6304 1.06351C42.3376 0.354793 43.1733 -6.10352e-05 44.1374 -6.10352e-05C45.1316 -6.10352e-05 45.9819 0.354793 46.6903 1.06351C47.3975 1.77303 47.7517 2.60089 47.7517 3.54631C47.7517 4.49232 47.3975 5.31227 46.6903 6.00598C45.9819 6.70126 45.1316 7.04818 44.1374 7.04818Z" fill="#00EBB0"/>
<path d="M77.8421 27.7618C73.3897 27.7618 69.7676 24.2073 69.7676 19.8388V8.92291H75.2281V19.8388C75.2281 21.2527 76.401 22.4038 77.8421 22.4038C79.2839 22.4038 80.4567 21.2527 80.4567 19.8388V8.92291H85.9172V19.8388C85.9172 24.2073 82.2952 27.7618 77.8421 27.7618Z" fill="#5733D1"/>
<path d="M108.45 8.65839C106.4 8.65839 104.531 9.41824 103.106 10.6583C101.68 9.41824 99.8113 8.65839 97.761 8.65839C93.3085 8.65839 89.6865 12.2128 89.6865 16.5813V27.4972H95.147V16.5813C95.147 15.1674 96.3199 14.0163 97.761 14.0163C99.2028 14.0163 100.376 15.1674 100.376 16.5813V27.4972H105.836V16.5813C105.836 15.1674 107.008 14.0163 108.45 14.0163C109.891 14.0163 111.064 15.1674 111.064 16.5813V27.4972H116.524V16.5813C116.524 12.2128 112.902 8.65839 108.45 8.65839Z" fill="#5733D1"/>
</g>
<defs>
<clipPath id="clip0_1301_56">
<rect width="117" height="28" fill="white"/>
</clipPath>
</defs>
</svg>
